# xmcd
#
# Track frame offsets:
#	150
#	43118
#	69137
#	110089
#	123893
#	154515
#	187836
#	212167
#	241897
#	281564
#
# Disc length: 4108 seconds
#
# Revision: 0
# Processed by: cddbd v1.5.2PL0 Copyright (c) Steve Scherf et al.
# Submitted via: audiograbber 1.83.01
#
DISCID=83100a0a
DTITLE=Grateful Dead - 92-12-06 Compton Terrace Amphitheatre, Chandler AZ
DYEAR=1900
DGENRE=
TTITLE0=Here Comes Sunshine
TTITLE1=Greatest Story Ever Told
TTITLE2=Friend Of The Devil
TTITLE3=Me and My Uncle
TTITLE4=Maggie's Farm
TTITLE5=Althea
TTITLE6=When I Paint My Masterpiece
TTITLE7=Deal
TTITLE8=Samson and Delilah
TTITLE9=Brokedown Palace
EXTD=
EXTT0=
EXTT1=
EXTT2=
EXTT3=
EXTT4=
EXTT5=
EXTT6=
EXTT7=
EXTT8=
EXTT9=
PLAYORDER=
